<svg width="1200" height="750" viewBox="0 0 1200 750" xmlns="http://www.w3.org/2000/svg">
  <defs>
    <linearGradient id="bg2" x1="0" y1="0" x2="0" y2="1">
      <stop offset="0%" stop-color="#f4f6f8"/>
      <stop offset="100%" stop-color="#edf0f4"/>
    </linearGradient>
    <filter id="sh2">
      <feDropShadow dx="0" dy="2" stdDeviation="4" flood-color="#00000018"/>
    </filter>
  </defs>
  <rect width="1200" height="750" fill="url(#bg2)"/>
  <!-- Sidebar -->
  <rect width="220" height="750" fill="#18202e"/>
  <rect x="20" y="20" width="32" height="32" rx="8" fill="#2563eb"/>
  <text x="60" y="42" font-family="system-ui" font-size="14" font-weight="700" fill="#f1f5f9">SENTINEL</text>
  <text x="60" y="56" font-family="system-ui" font-size="9" fill="#64748b">protect · clean · control</text>
  <rect x="0" y="90" width="220" height="1" fill="#1e293b"/>
  <circle cx="26" cy="108" r="4" fill="#334155"/>
  <text x="42" y="112" font-family="system-ui" font-size="11" fill="#64748b">TABLEAU DE BORD</text>
  <circle cx="26" cy="132" r="3" fill="#334155"/>
  <text x="42" y="136" font-family="system-ui" font-size="12" fill="#94a3b8">Résumé de mon Mac</text>
  <rect x="0" y="148" width="220" height="28" fill="#1e3a5f" opacity="0.6"/>
  <circle cx="26" cy="162" r="3" fill="#2563eb"/>
  <text x="42" y="166" font-family="system-ui" font-size="12" fill="#f1f5f9">Problèmes détectés</text>
  <circle cx="26" cy="188" r="3" fill="#334155"/>
  <text x="42" y="192" font-family="system-ui" font-size="11" fill="#64748b">MON MAC</text>
  <circle cx="26" cy="210" r="3" fill="#334155"/>
  <text x="42" y="214" font-family="system-ui" font-size="12" fill="#94a3b8">Mon ordinateur</text>
  <circle cx="26" cy="230" r="3" fill="#334155"/>
  <text x="42" y="234" font-family="system-ui" font-size="12" fill="#94a3b8">Chaleur &amp; Vitesse</text>
  <circle cx="26" cy="250" r="3" fill="#334155"/>
  <text x="42" y="254" font-family="system-ui" font-size="12" fill="#94a3b8">Espace de stockage</text>
  <circle cx="26" cy="270" r="3" fill="#334155"/>
  <text x="42" y="274" font-family="system-ui" font-size="12" fill="#94a3b8">Ma batterie</text>
  <circle cx="26" cy="298" r="3" fill="#334155"/>
  <text x="42" y="302" font-family="system-ui" font-size="11" fill="#64748b">CONNEXION</text>
  <circle cx="26" cy="320" r="3" fill="#334155"/>
  <text x="42" y="324" font-family="system-ui" font-size="12" fill="#94a3b8">WiFi &amp; Internet</text>
  <circle cx="26" cy="340" r="3" fill="#334155"/>
  <text x="42" y="344" font-family="system-ui" font-size="12" fill="#94a3b8">Appareils connectés</text>
  <circle cx="26" cy="368" r="3" fill="#334155"/>
  <text x="42" y="372" font-family="system-ui" font-size="11" fill="#64748b">SECURITE</text>
  <circle cx="26" cy="390" r="3" fill="#334155"/>
  <text x="42" y="394" font-family="system-ui" font-size="12" fill="#94a3b8">Mes protections</text>
  <!-- Mode switch -->
  <rect x="240" y="16" width="940" height="48" fill="white" rx="10" filter="url(#sh2)"/>
  <text x="260" y="46" font-family="system-ui" font-size="12" fill="#9ca3af">Choisissez comment afficher les informations :</text>
  <rect x="700" y="24" width="210" height="32" rx="8" fill="#f3f4f6"/>
  <text x="768" y="44" font-family="system-ui" font-size="12" fill="#9ca3af">Mode simple</text>
  <rect x="820" y="27" width="87" height="26" rx="7" fill="white" filter="url(#sh2)"/>
  <text x="863" y="44" font-family="system-ui" font-size="12" font-weight="600" fill="#111827">Mode expert</text>
  <!-- Section Alertes ouverte -->
  <rect x="240" y="80" width="940" height="220" rx="14" fill="white" filter="url(#sh2)"/>
  <rect x="258" y="95" width="18" height="18" rx="4" fill="#fef3c7"/>
  <text x="286" y="109" font-family="system-ui" font-size="14" font-weight="700" fill="#111827">Problèmes détectés</text>
  <text x="1120" y="109" font-family="system-ui" font-size="12" fill="#9ca3af" text-anchor="end">6 alertes dont 1 critique</text>
  <rect x="240" y="115" width="940" height="1" fill="#f1f5f9"/>
  <!-- Alerte critique -->
  <rect x="258" y="128" width="904" height="58" rx="8" fill="#fef2f2" stroke="#fecaca" stroke-width="1"/>
  <circle cx="276" cy="157" r="5" fill="#ef4444"/>
  <text x="290" y="152" font-family="system-ui" font-size="11" font-weight="700" fill="#dc2626">Sécurité — Critique</text>
  <text x="290" y="168" font-family="system-ui" font-size="12" fill="#374151">Le verrouillage écran n'est pas activé — votre Mac peut être déverrouillé sans mot de passe</text>
  <text x="290" y="182" font-family="system-ui" font-size="11" fill="#2563eb">Réglages Système › Economiseur d'écran › Demander le mot de passe</text>
  <!-- Alerte moyenne -->
  <rect x="258" y="196" width="904" height="48" rx="8" fill="#fffbeb" stroke="#fde68a" stroke-width="1"/>
  <circle cx="276" cy="220" r="5" fill="#f59e0b"/>
  <text x="290" y="215" font-family="system-ui" font-size="11" font-weight="700" fill="#d97706">Réseau — Important</text>
  <text x="290" y="231" font-family="system-ui" font-size="12" fill="#374151">Réseau ouvert détecté : AndroidAP_Dean — réseau non chiffré visible</text>
  <!-- Alerte info -->
  <rect x="258" y="254" width="904" height="38" rx="8" fill="#eff6ff" stroke="#bfdbfe" stroke-width="1"/>
  <circle cx="276" cy="273" r="5" fill="#3b82f6"/>
  <text x="290" y="268" font-family="system-ui" font-size="11" font-weight="700" fill="#2563eb">Fichiers — Information</text>
  <text x="290" y="284" font-family="system-ui" font-size="12" fill="#374151">4 fichiers en double détectés — 10.8 Mo récupérables</text>
  <!-- Section Hardware -->
  <rect x="240" y="316" width="460" height="280" rx="14" fill="white" filter="url(#sh2)"/>
  <text x="260" y="342" font-family="system-ui" font-size="14" font-weight="700" fill="#111827">Mon ordinateur</text>
  <rect x="240" y="352" width="460" height="1" fill="#f1f5f9"/>
  <!-- Fields -->
  <text x="260" y="374" font-family="system-ui" font-size="11" fill="#9ca3af">Processeur</text>
  <text x="480" y="374" font-family="system-ui" font-size="11" fill="#111827" text-anchor="end">Apple M3 Pro</text>
  <rect x="260" y="382" width="420" height="1" fill="#f9fafb"/>
  <text x="260" y="402" font-family="system-ui" font-size="11" fill="#9ca3af">Mémoire (RAM)</text>
  <text x="480" y="402" font-family="system-ui" font-size="11" fill="#2563eb" text-anchor="end">18 Go</text>
  <rect x="260" y="410" width="420" height="1" fill="#f9fafb"/>
  <text x="260" y="430" font-family="system-ui" font-size="11" fill="#9ca3af">Modèle</text>
  <text x="480" y="430" font-family="system-ui" font-size="11" fill="#111827" text-anchor="end">MacBook Pro 14-inch, 2023</text>
  <rect x="260" y="438" width="420" height="1" fill="#f9fafb"/>
  <text x="260" y="458" font-family="system-ui" font-size="11" fill="#9ca3af">macOS</text>
  <text x="480" y="458" font-family="system-ui" font-size="11" fill="#111827" text-anchor="end">14.3.1 (23D60)</text>
  <rect x="260" y="466" width="420" height="1" fill="#f9fafb"/>
  <text x="260" y="486" font-family="system-ui" font-size="11" fill="#9ca3af">Mémoire disponible</text>
  <text x="480" y="486" font-family="system-ui" font-size="11" fill="#22c55e" text-anchor="end">4.2 Go</text>
  <rect x="260" y="494" width="420" height="1" fill="#f9fafb"/>
  <text x="260" y="514" font-family="system-ui" font-size="11" fill="#9ca3af">Température CPU</text>
  <text x="480" y="514" font-family="system-ui" font-size="11" fill="#22c55e" text-anchor="end">52.3 °C</text>
  <!-- Section sécurité checks -->
  <rect x="720" y="316" width="460" height="280" rx="14" fill="white" filter="url(#sh2)"/>
  <text x="740" y="342" font-family="system-ui" font-size="14" font-weight="700" fill="#111827">Mes protections</text>
  <rect x="720" y="352" width="460" height="1" fill="#f1f5f9"/>
  <!-- Checks -->
  <text x="776" y="380" font-family="system-ui" font-size="12" fill="#111827">Gatekeeper actif</text>
  <circle cx="755" cy="376" r="8" fill="#dcfce7"/>
  <text x="755" y="380" font-family="system-ui" font-size="10" fill="#22c55e" text-anchor="middle">✓</text>
  <text x="776" y="406" font-family="system-ui" font-size="12" fill="#111827">SIP actif</text>
  <circle cx="755" cy="402" r="8" fill="#dcfce7"/>
  <text x="755" y="406" font-family="system-ui" font-size="10" fill="#22c55e" text-anchor="middle">✓</text>
  <text x="776" y="432" font-family="system-ui" font-size="12" fill="#111827">FileVault — disque chiffré</text>
  <circle cx="755" cy="428" r="8" fill="#dcfce7"/>
  <text x="755" y="432" font-family="system-ui" font-size="10" fill="#22c55e" text-anchor="middle">✓</text>
  <text x="776" y="458" font-family="system-ui" font-size="12" fill="#111827">Pare-feu actif</text>
  <circle cx="755" cy="454" r="8" fill="#dcfce7"/>
  <text x="755" y="458" font-family="system-ui" font-size="10" fill="#22c55e" text-anchor="middle">✓</text>
  <text x="776" y="484" font-family="system-ui" font-size="12" fill="#111827">Verrouillage écran</text>
  <circle cx="755" cy="480" r="8" fill="#fee2e2"/>
  <text x="755" y="484" font-family="system-ui" font-size="10" fill="#ef4444" text-anchor="middle">×</text>
  <text x="776" y="510" font-family="system-ui" font-size="12" fill="#111827">Mises à jour automatiques</text>
  <circle cx="755" cy="506" r="8" fill="#dcfce7"/>
  <text x="755" y="510" font-family="system-ui" font-size="10" fill="#22c55e" text-anchor="middle">✓</text>
  <!-- Score badge -->
  <rect x="1080" y="330" width="60" height="28" rx="14" fill="#eff6ff"/>
  <text x="1110" y="348" font-family="system-ui" font-size="12" font-weight="700" fill="#2563eb" text-anchor="middle">88/100</text>
  <!-- Label -->
  <text x="600" y="720" font-family="system-ui" font-size="11" fill="#9ca3af" text-anchor="middle">Mode Expert — Vue complète avec données techniques</text>
</svg>
