<svg width="1200" height="750" viewBox="0 0 1200 750" xmlns="http://www.w3.org/2000/svg">
  <defs>
    <linearGradient id="bg" x1="0" y1="0" x2="0" y2="1">
      <stop offset="0%" stop-color="#f4f6f8"/>
      <stop offset="100%" stop-color="#edf0f4"/>
    </linearGradient>
    <filter id="shadow">
      <feDropShadow dx="0" dy="2" stdDeviation="4" flood-color="#00000018"/>
    </filter>
  </defs>
  <!-- Fond principal -->
  <rect width="1200" height="750" fill="url(#bg)"/>
  <!-- Sidebar -->
  <rect width="220" height="750" fill="#18202e"/>
  <!-- Logo sidebar -->
  <rect x="20" y="20" width="32" height="32" rx="8" fill="#2563eb"/>
  <text x="60" y="42" font-family="system-ui" font-size="14" font-weight="700" fill="#f1f5f9">SENTINEL</text>
  <text x="60" y="56" font-family="system-ui" font-size="9" fill="#64748b">protect · clean · control</text>
  <!-- Nav items -->
  <rect x="0" y="90" width="220" height="1" fill="#1e293b"/>
  <rect x="0" y="108" width="220" height="32" fill="#1e3a5f" opacity="0.5"/>
  <circle cx="26" cy="124" r="4" fill="#2563eb"/>
  <text x="42" y="128" font-family="system-ui" font-size="12" fill="#f1f5f9">Tableau de bord</text>
  <circle cx="26" cy="156" r="3" fill="#334155"/>
  <text x="42" y="160" font-family="system-ui" font-size="12" fill="#94a3b8">Problèmes détectés</text>
  <circle cx="26" cy="188" r="3" fill="#334155"/>
  <text x="42" y="192" font-family="system-ui" font-size="12" fill="#94a3b8">Mon Mac</text>
  <circle cx="26" cy="220" r="3" fill="#334155"/>
  <text x="42" y="224" font-family="system-ui" font-size="12" fill="#94a3b8">Connexion</text>
  <circle cx="26" cy="252" r="3" fill="#334155"/>
  <text x="42" y="256" font-family="system-ui" font-size="12" fill="#94a3b8">Sécurité</text>
  <circle cx="26" cy="284" r="3" fill="#334155"/>
  <text x="42" y="288" font-family="system-ui" font-size="12" fill="#94a3b8">Fichiers &amp; Apps</text>
  <!-- Mode switch -->
  <rect x="240" y="16" width="940" height="48" fill="white" rx="10" filter="url(#shadow)"/>
  <text x="260" y="46" font-family="system-ui" font-size="12" fill="#9ca3af">Choisissez comment afficher les informations :</text>
  <rect x="700" y="24" width="210" height="32" rx="8" fill="#f3f4f6"/>
  <rect x="703" y="27" width="100" height="26" rx="7" fill="white" filter="url(#shadow)"/>
  <text x="720" y="44" font-family="system-ui" font-size="12" font-weight="600" fill="#111827">Mode simple</text>
  <text x="822" y="44" font-family="system-ui" font-size="12" fill="#9ca3af">Mode expert</text>
  <!-- Hero card -->
  <rect x="240" y="80" width="940" height="100" rx="14" fill="#18202e" filter="url(#shadow)"/>
  <circle cx="290" cy="130" r="36" fill="none" stroke="#2563eb" stroke-width="5"/>
  <text x="290" y="135" font-family="system-ui" font-size="18" font-weight="700" fill="#2563eb" text-anchor="middle">85</text>
  <text x="345" y="110" font-family="system-ui" font-size="16" font-weight="700" fill="#f1f5f9">Score de santé : 85 / 100 — Excellent</text>
  <text x="345" y="130" font-family="system-ui" font-size="11" fill="#64748b">MacBook Pro 14-inch, 2023 · Apple M3 Pro · macOS 14.3.1 · Rapport du 27/03/2026</text>
  <!-- KPI chips -->
  <rect x="345" y="145" width="80" height="26" rx="13" fill="#1e3a5f"/>
  <text x="385" y="162" font-family="system-ui" font-size="11" fill="#93c5fd" text-anchor="middle">Sécurité 88</text>
  <rect x="435" y="145" width="90" height="26" rx="13" fill="#1e4a2e"/>
  <text x="480" y="162" font-family="system-ui" font-size="11" fill="#86efac" text-anchor="middle">Batterie 86</text>
  <rect x="535" y="145" width="80" height="26" rx="13" fill="#1e3a5f"/>
  <text x="575" y="162" font-family="system-ui" font-size="11" fill="#93c5fd" text-anchor="middle">Stockage 72</text>
  <rect x="625" y="145" width="90" height="26" rx="13" fill="#1e4a2e"/>
  <text x="670" y="162" font-family="system-ui" font-size="11" fill="#86efac" text-anchor="middle">Réseau 75</text>
  <!-- Bannière accueil -->
  <rect x="240" y="196" width="940" height="72" rx="12" fill="white" filter="url(#shadow)"/>
  <rect x="254" y="210" width="28" height="44" rx="6" fill="#eff6ff"/>
  <text x="268" y="236" font-family="system-ui" font-size="16" fill="#2563eb" text-anchor="middle">S</text>
  <text x="294" y="220" font-family="system-ui" font-size="13" font-weight="700" fill="#1e40af">SENTINEL a analysé votre Mac — voici ce qu'on a trouvé</text>
  <text x="294" y="236" font-family="system-ui" font-size="11" fill="#374151">Cliquez sur chaque titre pour afficher les détails.</text>
  <text x="294" y="252" font-family="system-ui" font-size="11" fill="#374151">Les problèmes urgents sont dans la section "Problèmes détectés".</text>
  <!-- Cartes mode simple -->
  <rect x="240" y="284" width="455" height="80" rx="12" fill="#fef2f2" filter="url(#shadow)" stroke="#fecaca" stroke-width="1"/>
  <rect x="240" y="284" width="3" height="80" rx="2" fill="#ef4444"/>
  <text x="260" y="310" font-family="system-ui" font-size="13" font-weight="700" fill="#111827">Sécurité</text>
  <text x="630" y="310" font-family="system-ui" font-size="12" font-weight="600" fill="#ef4444" text-anchor="end">Protection partielle</text>
  <text x="260" y="330" font-family="system-ui" font-size="12" fill="#374151">Problème : Le verrouillage écran n'est pas activé</text>
  <text x="260" y="350" font-family="system-ui" font-size="11" fill="#2563eb">Corriger dans Réglages Système</text>
  <rect x="725" y="284" width="455" height="80" rx="12" fill="#f0fdf4" filter="url(#shadow)" stroke="#bbf7d0" stroke-width="1"/>
  <rect x="725" y="284" width="3" height="80" rx="2" fill="#22c55e"/>
  <text x="745" y="310" font-family="system-ui" font-size="13" font-weight="700" fill="#111827">Batterie</text>
  <text x="1168" y="310" font-family="system-ui" font-size="12" font-weight="600" fill="#22c55e" text-anchor="end">En bonne santé</text>
  <text x="745" y="330" font-family="system-ui" font-size="12" fill="#374151">78% de charge · 147 recharges effectuées · 3h 42min restantes</text>
  <rect x="240" y="380" width="455" height="80" rx="12" fill="#f0fdf4" filter="url(#shadow)" stroke="#bbf7d0" stroke-width="1"/>
  <rect x="240" y="380" width="3" height="80" rx="2" fill="#22c55e"/>
  <text x="260" y="406" font-family="system-ui" font-size="13" font-weight="700" fill="#111827">Stockage</text>
  <text x="630" y="406" font-family="system-ui" font-size="12" font-weight="600" fill="#22c55e" text-anchor="end">Espace suffisant</text>
  <text x="260" y="426" font-family="system-ui" font-size="12" fill="#374151">287 Go utilisés sur 512 Go (56%) · 225 Go libres</text>
  <rect x="725" y="380" width="455" height="80" rx="12" fill="#f0fdf4" filter="url(#shadow)" stroke="#bbf7d0" stroke-width="1"/>
  <rect x="725" y="380" width="3" height="80" rx="2" fill="#22c55e"/>
  <text x="745" y="406" font-family="system-ui" font-size="13" font-weight="700" fill="#111827">Connexion</text>
  <text x="1168" y="406" font-family="system-ui" font-size="12" font-weight="600" fill="#22c55e" text-anchor="end">Sécurisée</text>
  <text x="745" y="426" font-family="system-ui" font-size="12" fill="#374151">Connecté à : FreeWifi_Secure · WPA2 · 5 GHz</text>
  <!-- Footer info -->
  <rect x="240" y="476" width="940" height="40" rx="10" fill="white" filter="url(#shadow)"/>
  <text x="260" y="500" font-family="system-ui" font-size="11" fill="#9ca3af">Données 100% locales — aucune transmission externe</text>
  <rect x="980" y="483" width="188" height="26" rx="7" fill="#2563eb"/>
  <text x="1074" y="500" font-family="system-ui" font-size="11" font-weight="600" fill="white" text-anchor="middle">Voir les données techniques</text>
  <!-- Label mode -->
  <text x="600" y="540" font-family="system-ui" font-size="11" fill="#9ca3af" text-anchor="middle">Mode Simple — Vue débutant</text>
</svg>